<svg xmlns="http://www.w3.org/2000/svg" shape-rendering="geometricPrecision" text-rendering="geometricPrecision" image-rendering="optimizeQuality" fill-rule="evenodd" clip-rule="evenodd" viewBox="0 0 507 511.92"><path d="M223.36 0c61.68 0 117.53 25 157.95 65.43 40.42 40.42 65.42 96.26 65.42 157.94 0 45.12-13.39 87.12-36.4 122.25L507 450.99l-66.66 60.93-93.23-102.59c-35.42 23.63-77.98 37.4-123.75 37.4-61.67 0-117.52-25-157.94-65.42C25 340.88 0 285.04 0 223.36c0-61.67 25-117.52 65.42-157.94S161.69 0 223.36 0zm-16.05 178.1c12.05 0 21.82 9.77 21.82 21.82s-9.77 21.82-21.82 21.82-21.82-9.77-21.82-21.82 9.77-21.82 21.82-21.82zM55.05 216.47c24.31-31.16 51.43-55.99 80.23-72.7 28.22-16.38 58.07-25.02 88.52-24.33 28.53.66 57.29 9.64 85.4 26.05 28.02 16.35 55.55 40.18 81.71 70.56l5.43 6.3-4.62 6.9c-21.19 31.7-47.11 56.41-75.52 73.12-29.04 17.09-60.69 25.81-92.56 25.14-30.85-.65-61.75-10.12-90.55-26.92-28.79-16.79-55.57-40.91-78.17-70.82l-5.03-6.67 5.16-6.63zm168.11-49.26c15.51 0 29.6 6.32 39.78 16.5 10.17 10.17 16.48 24.26 16.48 39.77 0 15.51-6.31 29.59-16.48 39.77-10.18 10.18-24.27 16.49-39.78 16.49-15.51 0-29.57-6.31-39.75-16.49-10.21-10.18-16.52-24.26-16.52-39.77 0-15.5 6.3-29.55 16.5-39.75 10.23-10.23 24.28-16.52 39.77-16.52zm-76.93-4.55c-24.34 14.12-47.51 34.76-68.68 60.59 19.69 24.55 42.37 44.4 66.49 58.45 25.7 14.99 53.02 23.44 80.03 24.01 27.8.58 55.53-7.1 81.11-22.15 23.52-13.84 45.27-33.93 63.66-59.58-22.83-25.47-46.61-45.56-70.67-59.6-25-14.59-50.2-22.57-74.8-23.14-26.29-.6-52.32 7.01-77.14 21.42zm217.46-79.61c-35.91-35.91-85.53-58.13-140.33-58.13-54.8 0-104.41 22.22-140.32 58.13-35.91 35.91-58.12 85.51-58.12 140.31s22.21 104.42 58.12 140.32c35.91 35.92 85.52 58.12 140.32 58.12s104.42-22.2 140.33-58.12c35.91-35.9 58.11-85.51 58.11-140.32 0-54.8-22.2-104.4-58.11-140.31z"/></svg>